<svg width="13" height="16" viewBox="0 0 13 16" fill="none" xmlns="http://www.w3.org/2000/svg">
<path d="M6.74008 0.203125C3.55539 0.203125 0.407959 2.34063 0.407959 5.8C0.407959 8 1.63713 9.25 2.38209 9.25C2.68938 9.25 2.86631 8.3875 2.86631 8.14375C2.86631 7.85313 2.13067 7.23438 2.13067 6.025C2.13067 3.5125 4.0303 1.73125 6.48865 1.73125C8.60246 1.73125 10.1669 2.94062 10.1669 5.1625C10.1669 6.82187 9.50572 9.93437 7.36398 9.93437C6.59109 9.93437 5.92994 9.37187 5.92994 8.56563C5.92994 7.38438 6.74939 6.24062 6.74939 5.02187C6.74939 2.95312 3.83475 3.32812 3.83475 5.82812C3.83475 6.35313 3.89994 6.93437 4.13273 7.4125C3.70439 9.26875 2.82906 12.0344 2.82906 13.9469C2.82906 14.5375 2.91287 15.1188 2.96874 15.7094C3.07428 15.8281 3.02151 15.8156 3.18292 15.7563C4.74732 13.6 4.69145 13.1781 5.39916 10.3562C5.78095 11.0875 6.76801 11.4812 7.55022 11.4812C10.8466 11.4812 12.3272 8.24688 12.3272 5.33125C12.3272 2.22813 9.66403 0.203125 6.74008 0.203125Z" fill="black"/>
</svg>
