<svg width="17" height="16" viewBox="0 0 17 16" fill="none" xmlns="http://www.w3.org/2000/svg">
<g clip-path="url(#clip0_190_1902)">
<path d="M14.4179 4.741C14.428 4.88313 14.428 5.02529 14.428 5.16741C14.428 9.50241 11.1507 14.4973 5.16084 14.4973C3.31546 14.4973 1.6012 13.9593 0.15918 13.0253C0.421373 13.0557 0.673447 13.0659 0.945728 13.0659C2.46839 13.0659 3.87008 12.5481 4.98941 11.6649C3.55748 11.6344 2.35748 10.6903 1.94403 9.39075C2.14573 9.42119 2.34739 9.4415 2.55918 9.4415C2.8516 9.4415 3.14406 9.40088 3.41631 9.32985C1.92388 9.02525 0.804528 7.70547 0.804528 6.11157V6.07097C1.23812 6.31463 1.74236 6.46691 2.27678 6.48719C1.39947 5.89835 0.824704 4.89329 0.824704 3.75622C0.824704 3.1471 0.986018 2.58872 1.26839 2.10141C2.87175 4.09125 5.28183 5.39072 7.98431 5.53288C7.9339 5.28922 7.90364 5.03544 7.90364 4.78163C7.90364 2.9745 9.35574 1.50244 11.1608 1.50244C12.0986 1.50244 12.9456 1.89838 13.5406 2.53797C14.2767 2.39585 14.9826 2.12172 15.6078 1.7461C15.3658 2.50754 14.8515 3.14713 14.1759 3.55319C14.8313 3.48216 15.4666 3.29938 16.0515 3.0456C15.6079 3.69532 15.0532 4.27397 14.4179 4.741Z" fill="black"/>
</g>
<defs>
<clipPath id="clip0_190_1902">
<rect width="15.8924" height="16" fill="white" transform="translate(0.15918)"/>
</clipPath>
</defs>
</svg>
